<mxfile host="app.diagrams.net" modified="2023-10-26T04:16:47.579Z" agent="Mozilla/5.0 (Windows NT 10.0; Win64; x64) AppleWebKit/537.36 (KHTML, like Gecko) Chrome/116.0.5845.888 YaBrowser/23.9.2.888 Yowser/2.5 Safari/537.36" etag="LTqxq8pjjnqLkvgvjsUT" version="22.0.8" type="device">
  <diagram name="Страница — 1" id="33vwurYm3BJ0Zgcf0BRi">
    <mxGraphModel dx="1806" dy="571" grid="1" gridSize="10" guides="1" tooltips="1" connect="1" arrows="1" fold="1" page="1" pageScale="1" pageWidth="827" pageHeight="1169" math="0" shadow="0">
      <root>
        <mxCell id="0" />
        <mxCell id="1" parent="0" />
        <mxCell id="AZ7VGwZqWAIWdhdv4kq0-9" style="rounded=0;orthogonalLoop=1;jettySize=auto;html=1;entryX=1;entryY=1;entryDx=0;entryDy=0;endArrow=none;endFill=0;fontStyle=1;fontSize=14;" parent="1" source="AZ7VGwZqWAIWdhdv4kq0-6" target="AZ7VGwZqWAIWdhdv4kq0-1" edge="1">
          <mxGeometry relative="1" as="geometry" />
        </mxCell>
        <mxCell id="AZ7VGwZqWAIWdhdv4kq0-11" style="rounded=0;orthogonalLoop=1;jettySize=auto;html=1;endArrow=none;endFill=0;fontStyle=1;fontSize=14;" parent="1" source="AZ7VGwZqWAIWdhdv4kq0-6" target="AZ7VGwZqWAIWdhdv4kq0-4" edge="1">
          <mxGeometry relative="1" as="geometry" />
        </mxCell>
        <mxCell id="AZ7VGwZqWAIWdhdv4kq0-12" style="rounded=0;orthogonalLoop=1;jettySize=auto;html=1;entryX=0;entryY=0;entryDx=0;entryDy=0;endArrow=none;endFill=0;fontStyle=1;fontSize=14;" parent="1" source="AZ7VGwZqWAIWdhdv4kq0-6" target="AZ7VGwZqWAIWdhdv4kq0-3" edge="1">
          <mxGeometry relative="1" as="geometry" />
        </mxCell>
        <mxCell id="AZ7VGwZqWAIWdhdv4kq0-6" value="" style="ellipse;whiteSpace=wrap;html=1;aspect=fixed;fontStyle=1;fontSize=14;" parent="1" vertex="1">
          <mxGeometry x="334" y="210" width="80" height="80" as="geometry" />
        </mxCell>
        <mxCell id="AZ7VGwZqWAIWdhdv4kq0-5" value="Администратор&lt;br style=&quot;font-size: 14px;&quot;&gt;&lt;i style=&quot;font-size: 14px;&quot;&gt;(from Администраторский отдел)&lt;/i&gt;" style="shape=umlActor;verticalLabelPosition=bottom;verticalAlign=top;html=1;outlineConnect=0;fontStyle=1;fontSize=14;" parent="1" vertex="1">
          <mxGeometry x="360" y="220" width="30" height="60" as="geometry" />
        </mxCell>
        <mxCell id="AZ7VGwZqWAIWdhdv4kq0-45" value="" style="group;fontStyle=1;fontSize=14;" parent="1" vertex="1" connectable="0">
          <mxGeometry x="460" y="320" width="160" height="110" as="geometry" />
        </mxCell>
        <mxCell id="AZ7VGwZqWAIWdhdv4kq0-3" value="Занесение результатов в общую таблицу результатов" style="ellipse;whiteSpace=wrap;html=1;fontStyle=1;fontSize=14;" parent="AZ7VGwZqWAIWdhdv4kq0-45" vertex="1">
          <mxGeometry width="160" height="110" as="geometry" />
        </mxCell>
        <mxCell id="AZ7VGwZqWAIWdhdv4kq0-42" value="" style="ellipse;whiteSpace=wrap;html=1;fontStyle=1;fontSize=14;" parent="AZ7VGwZqWAIWdhdv4kq0-45" vertex="1">
          <mxGeometry x="85" y="80" width="20" height="10" as="geometry" />
        </mxCell>
        <mxCell id="AZ7VGwZqWAIWdhdv4kq0-43" value="" style="ellipse;whiteSpace=wrap;html=1;fontStyle=1;fontSize=14;" parent="AZ7VGwZqWAIWdhdv4kq0-45" vertex="1">
          <mxGeometry x="115" y="80" width="20" height="10" as="geometry" />
        </mxCell>
        <mxCell id="AZ7VGwZqWAIWdhdv4kq0-41" style="rounded=0;orthogonalLoop=1;jettySize=auto;html=1;exitX=1;exitY=0.5;exitDx=0;exitDy=0;entryX=0;entryY=0.5;entryDx=0;entryDy=0;endArrow=none;endFill=0;fontStyle=1;fontSize=14;" parent="AZ7VGwZqWAIWdhdv4kq0-45" source="AZ7VGwZqWAIWdhdv4kq0-42" target="AZ7VGwZqWAIWdhdv4kq0-43" edge="1">
          <mxGeometry relative="1" as="geometry" />
        </mxCell>
        <mxCell id="dplGjKw8QEpCrHNLyvII-1" value="" style="group;fontStyle=1;fontSize=14;" parent="1" vertex="1" connectable="0">
          <mxGeometry x="450" y="140" width="160" height="100" as="geometry" />
        </mxCell>
        <mxCell id="AZ7VGwZqWAIWdhdv4kq0-44" value="" style="group;fontStyle=1;fontSize=14;" parent="dplGjKw8QEpCrHNLyvII-1" vertex="1" connectable="0">
          <mxGeometry width="160" height="100" as="geometry" />
        </mxCell>
        <mxCell id="AZ7VGwZqWAIWdhdv4kq0-2" value="Формирование отчёта об окончании тренировки" style="ellipse;whiteSpace=wrap;html=1;fontStyle=1;fontSize=14;" parent="AZ7VGwZqWAIWdhdv4kq0-44" vertex="1">
          <mxGeometry width="160" height="100" as="geometry" />
        </mxCell>
        <mxCell id="AZ7VGwZqWAIWdhdv4kq0-39" value="" style="ellipse;whiteSpace=wrap;html=1;fontStyle=1;fontSize=14;" parent="AZ7VGwZqWAIWdhdv4kq0-44" vertex="1">
          <mxGeometry x="80" y="70" width="20" height="10" as="geometry" />
        </mxCell>
        <mxCell id="AZ7VGwZqWAIWdhdv4kq0-40" value="" style="ellipse;whiteSpace=wrap;html=1;fontStyle=1;fontSize=14;" parent="AZ7VGwZqWAIWdhdv4kq0-44" vertex="1">
          <mxGeometry x="110" y="70" width="20" height="10" as="geometry" />
        </mxCell>
        <mxCell id="AZ7VGwZqWAIWdhdv4kq0-38" style="rounded=0;orthogonalLoop=1;jettySize=auto;html=1;exitX=1;exitY=0.5;exitDx=0;exitDy=0;entryX=0;entryY=0.5;entryDx=0;entryDy=0;endArrow=none;endFill=0;fontStyle=1;fontSize=14;" parent="AZ7VGwZqWAIWdhdv4kq0-44" source="AZ7VGwZqWAIWdhdv4kq0-39" target="AZ7VGwZqWAIWdhdv4kq0-40" edge="1">
          <mxGeometry relative="1" as="geometry" />
        </mxCell>
        <mxCell id="AZ7VGwZqWAIWdhdv4kq0-10" style="rounded=0;orthogonalLoop=1;jettySize=auto;html=1;endArrow=none;endFill=0;fontStyle=1;fontSize=14;" parent="1" source="AZ7VGwZqWAIWdhdv4kq0-6" target="AZ7VGwZqWAIWdhdv4kq0-2" edge="1">
          <mxGeometry relative="1" as="geometry" />
        </mxCell>
        <mxCell id="dplGjKw8QEpCrHNLyvII-2" value="" style="group;fontStyle=1;fontSize=14;" parent="1" vertex="1" connectable="0">
          <mxGeometry x="170" y="320" width="160" height="120" as="geometry" />
        </mxCell>
        <mxCell id="AZ7VGwZqWAIWdhdv4kq0-4" value="Регистрация спортсмена в электронной системе" style="ellipse;whiteSpace=wrap;html=1;fontStyle=1;fontSize=14;" parent="dplGjKw8QEpCrHNLyvII-2" vertex="1">
          <mxGeometry width="160" height="120" as="geometry" />
        </mxCell>
        <mxCell id="AZ7VGwZqWAIWdhdv4kq0-33" value="" style="ellipse;whiteSpace=wrap;html=1;fontStyle=1;fontSize=14;" parent="dplGjKw8QEpCrHNLyvII-2" vertex="1">
          <mxGeometry x="90" y="80" width="20" height="10" as="geometry" />
        </mxCell>
        <mxCell id="AZ7VGwZqWAIWdhdv4kq0-34" value="" style="ellipse;whiteSpace=wrap;html=1;fontStyle=1;fontSize=14;" parent="dplGjKw8QEpCrHNLyvII-2" vertex="1">
          <mxGeometry x="120" y="80" width="20" height="10" as="geometry" />
        </mxCell>
        <mxCell id="AZ7VGwZqWAIWdhdv4kq0-32" style="rounded=0;orthogonalLoop=1;jettySize=auto;html=1;exitX=1;exitY=0.5;exitDx=0;exitDy=0;entryX=0;entryY=0.5;entryDx=0;entryDy=0;endArrow=none;endFill=0;fontStyle=1;fontSize=14;" parent="dplGjKw8QEpCrHNLyvII-2" source="AZ7VGwZqWAIWdhdv4kq0-33" target="AZ7VGwZqWAIWdhdv4kq0-34" edge="1">
          <mxGeometry relative="1" as="geometry" />
        </mxCell>
        <mxCell id="dplGjKw8QEpCrHNLyvII-3" value="" style="group;fontStyle=1;fontSize=14;" parent="1" vertex="1" connectable="0">
          <mxGeometry x="210" y="80" width="150" height="110" as="geometry" />
        </mxCell>
        <mxCell id="AZ7VGwZqWAIWdhdv4kq0-1" value="Запись об окончании тренировки" style="ellipse;whiteSpace=wrap;html=1;fontStyle=1;fontSize=14;" parent="dplGjKw8QEpCrHNLyvII-3" vertex="1">
          <mxGeometry width="150" height="110" as="geometry" />
        </mxCell>
        <mxCell id="AZ7VGwZqWAIWdhdv4kq0-36" value="" style="ellipse;whiteSpace=wrap;html=1;fontStyle=1;fontSize=14;" parent="dplGjKw8QEpCrHNLyvII-3" vertex="1">
          <mxGeometry x="70" y="80" width="20" height="10" as="geometry" />
        </mxCell>
        <mxCell id="AZ7VGwZqWAIWdhdv4kq0-37" value="" style="ellipse;whiteSpace=wrap;html=1;fontStyle=1;fontSize=14;" parent="dplGjKw8QEpCrHNLyvII-3" vertex="1">
          <mxGeometry x="100" y="80" width="20" height="10" as="geometry" />
        </mxCell>
        <mxCell id="AZ7VGwZqWAIWdhdv4kq0-35" style="rounded=0;orthogonalLoop=1;jettySize=auto;html=1;exitX=1;exitY=0.5;exitDx=0;exitDy=0;entryX=0;entryY=0.5;entryDx=0;entryDy=0;endArrow=none;endFill=0;fontStyle=1;fontSize=14;" parent="dplGjKw8QEpCrHNLyvII-3" source="AZ7VGwZqWAIWdhdv4kq0-36" target="AZ7VGwZqWAIWdhdv4kq0-37" edge="1">
          <mxGeometry relative="1" as="geometry" />
        </mxCell>
        <mxCell id="dplGjKw8QEpCrHNLyvII-4" style="rounded=0;orthogonalLoop=1;jettySize=auto;html=1;dashed=1;endArrow=open;endFill=0;fontStyle=1;fontSize=14;" parent="1" source="AZ7VGwZqWAIWdhdv4kq0-3" target="AZ7VGwZqWAIWdhdv4kq0-4" edge="1">
          <mxGeometry relative="1" as="geometry" />
        </mxCell>
        <mxCell id="dplGjKw8QEpCrHNLyvII-5" value="&quot;include&quot;" style="edgeLabel;html=1;align=center;verticalAlign=middle;resizable=0;points=[];fontStyle=1;fontSize=14;" parent="dplGjKw8QEpCrHNLyvII-4" vertex="1" connectable="0">
          <mxGeometry x="-0.5686" y="2" relative="1" as="geometry">
            <mxPoint x="-32" y="11" as="offset" />
          </mxGeometry>
        </mxCell>
        <mxCell id="dplGjKw8QEpCrHNLyvII-6" style="rounded=0;orthogonalLoop=1;jettySize=auto;html=1;entryX=1;entryY=0.5;entryDx=0;entryDy=0;dashed=1;endArrow=open;endFill=0;fontStyle=1;fontSize=14;" parent="1" source="AZ7VGwZqWAIWdhdv4kq0-3" target="AZ7VGwZqWAIWdhdv4kq0-1" edge="1">
          <mxGeometry relative="1" as="geometry" />
        </mxCell>
        <mxCell id="dplGjKw8QEpCrHNLyvII-7" value="&quot;include&quot;" style="edgeLabel;html=1;align=center;verticalAlign=middle;resizable=0;points=[];fontStyle=1;fontSize=14;" parent="1" vertex="1" connectable="0">
          <mxGeometry x="449.9987716730425" y="270.0014425465773" as="geometry" />
        </mxCell>
        <mxCell id="dplGjKw8QEpCrHNLyvII-8" value="" style="swimlane;horizontal=0;whiteSpace=wrap;html=1;fontStyle=1;fontSize=14;" parent="1" vertex="1">
          <mxGeometry x="-100" y="430" width="220" height="120" as="geometry" />
        </mxCell>
        <mxCell id="dplGjKw8QEpCrHNLyvII-9" value="Должно содержать команду спортсмена, выданный тип тагера" style="text;html=1;strokeColor=none;fillColor=none;align=center;verticalAlign=middle;whiteSpace=wrap;rounded=0;fontStyle=1;fontSize=14;" parent="dplGjKw8QEpCrHNLyvII-8" vertex="1">
          <mxGeometry x="40" y="40" width="160" height="30" as="geometry" />
        </mxCell>
        <mxCell id="dplGjKw8QEpCrHNLyvII-10" style="rounded=0;orthogonalLoop=1;jettySize=auto;html=1;entryX=1;entryY=0.25;entryDx=0;entryDy=0;endArrow=open;endFill=0;dashed=1;fontStyle=1;fontSize=14;" parent="1" source="AZ7VGwZqWAIWdhdv4kq0-4" target="dplGjKw8QEpCrHNLyvII-8" edge="1">
          <mxGeometry relative="1" as="geometry" />
        </mxCell>
        <mxCell id="dplGjKw8QEpCrHNLyvII-11" value="&quot;invokes&quot;" style="edgeLabel;html=1;align=center;verticalAlign=middle;resizable=0;points=[];fontStyle=1;fontSize=14;" parent="dplGjKw8QEpCrHNLyvII-10" vertex="1" connectable="0">
          <mxGeometry x="-0.1985" y="-2" relative="1" as="geometry">
            <mxPoint y="1" as="offset" />
          </mxGeometry>
        </mxCell>
        <mxCell id="dplGjKw8QEpCrHNLyvII-12" value="&lt;i style=&quot;font-size: 14px;&quot;&gt;(from Состав требований)&lt;/i&gt;" style="text;html=1;strokeColor=none;fillColor=none;align=center;verticalAlign=middle;whiteSpace=wrap;rounded=0;fontStyle=1;fontSize=14;" parent="1" vertex="1">
          <mxGeometry x="-80" y="554" width="200" height="30" as="geometry" />
        </mxCell>
        <mxCell id="dplGjKw8QEpCrHNLyvII-13" value="" style="swimlane;horizontal=0;whiteSpace=wrap;html=1;fontStyle=1;fontSize=14;" parent="1" vertex="1">
          <mxGeometry x="-50" y="10" width="220" height="120" as="geometry" />
        </mxCell>
        <mxCell id="dplGjKw8QEpCrHNLyvII-14" value="Запись должна содержать дату и время окончания тренировки, причину окончания(если таковая имеется" style="text;html=1;strokeColor=none;fillColor=none;align=center;verticalAlign=middle;whiteSpace=wrap;rounded=0;fontStyle=1;fontSize=14;" parent="dplGjKw8QEpCrHNLyvII-13" vertex="1">
          <mxGeometry x="30" y="40" width="190" height="30" as="geometry" />
        </mxCell>
        <mxCell id="dplGjKw8QEpCrHNLyvII-15" style="rounded=0;orthogonalLoop=1;jettySize=auto;html=1;entryX=1;entryY=1;entryDx=0;entryDy=0;endArrow=open;endFill=0;dashed=1;exitX=0;exitY=0;exitDx=0;exitDy=0;fontStyle=1;fontSize=14;" parent="1" source="AZ7VGwZqWAIWdhdv4kq0-1" target="dplGjKw8QEpCrHNLyvII-14" edge="1">
          <mxGeometry relative="1" as="geometry">
            <mxPoint x="228" y="50" as="sourcePoint" />
            <mxPoint x="160" y="92" as="targetPoint" />
          </mxGeometry>
        </mxCell>
        <mxCell id="dplGjKw8QEpCrHNLyvII-16" value="&quot;invokes&quot;" style="edgeLabel;html=1;align=center;verticalAlign=middle;resizable=0;points=[];fontStyle=1;fontSize=14;" parent="dplGjKw8QEpCrHNLyvII-15" vertex="1" connectable="0">
          <mxGeometry x="-0.1985" y="-2" relative="1" as="geometry">
            <mxPoint y="1" as="offset" />
          </mxGeometry>
        </mxCell>
        <mxCell id="dplGjKw8QEpCrHNLyvII-17" value="" style="swimlane;horizontal=0;whiteSpace=wrap;html=1;fontStyle=1;fontSize=14;" parent="1" vertex="1">
          <mxGeometry x="600" y="450" width="220" height="120" as="geometry" />
        </mxCell>
        <mxCell id="dplGjKw8QEpCrHNLyvII-18" value="Результат должен содержать количество устранений, поражений, захвата точек, количество попаданий" style="text;html=1;strokeColor=none;fillColor=none;align=center;verticalAlign=middle;whiteSpace=wrap;rounded=0;fontStyle=1;fontSize=14;" parent="dplGjKw8QEpCrHNLyvII-17" vertex="1">
          <mxGeometry x="30" y="44" width="190" height="30" as="geometry" />
        </mxCell>
        <mxCell id="dplGjKw8QEpCrHNLyvII-19" style="rounded=0;orthogonalLoop=1;jettySize=auto;html=1;entryX=0.25;entryY=0;entryDx=0;entryDy=0;endArrow=open;endFill=0;dashed=1;exitX=1;exitY=1;exitDx=0;exitDy=0;fontStyle=1;fontSize=14;" parent="1" source="AZ7VGwZqWAIWdhdv4kq0-3" target="dplGjKw8QEpCrHNLyvII-17" edge="1">
          <mxGeometry relative="1" as="geometry">
            <mxPoint x="548" y="512" as="sourcePoint" />
            <mxPoint x="480" y="554" as="targetPoint" />
          </mxGeometry>
        </mxCell>
        <mxCell id="dplGjKw8QEpCrHNLyvII-20" value="&quot;invokes&quot;" style="edgeLabel;html=1;align=center;verticalAlign=middle;resizable=0;points=[];fontStyle=1;fontSize=14;" parent="dplGjKw8QEpCrHNLyvII-19" vertex="1" connectable="0">
          <mxGeometry x="-0.1985" y="-2" relative="1" as="geometry">
            <mxPoint y="1" as="offset" />
          </mxGeometry>
        </mxCell>
        <mxCell id="dplGjKw8QEpCrHNLyvII-21" value="" style="swimlane;horizontal=0;whiteSpace=wrap;html=1;fontStyle=1;fontSize=14;" parent="1" vertex="1">
          <mxGeometry x="610" y="10" width="220" height="120" as="geometry" />
        </mxCell>
        <mxCell id="dplGjKw8QEpCrHNLyvII-22" value="Отчёт должен соответствовать стандартам оформления отчёта окончанных тренировок" style="text;html=1;strokeColor=none;fillColor=none;align=center;verticalAlign=middle;whiteSpace=wrap;rounded=0;fontStyle=1;fontSize=14;" parent="dplGjKw8QEpCrHNLyvII-21" vertex="1">
          <mxGeometry x="30" y="42.5" width="160" height="35" as="geometry" />
        </mxCell>
        <mxCell id="dplGjKw8QEpCrHNLyvII-23" style="rounded=0;orthogonalLoop=1;jettySize=auto;html=1;entryX=0;entryY=0.75;entryDx=0;entryDy=0;endArrow=open;endFill=0;dashed=1;exitX=1;exitY=0;exitDx=0;exitDy=0;fontStyle=1;fontSize=14;" parent="1" source="AZ7VGwZqWAIWdhdv4kq0-2" target="dplGjKw8QEpCrHNLyvII-21" edge="1">
          <mxGeometry relative="1" as="geometry">
            <mxPoint x="650" y="154" as="sourcePoint" />
            <mxPoint x="688" y="220" as="targetPoint" />
          </mxGeometry>
        </mxCell>
        <mxCell id="dplGjKw8QEpCrHNLyvII-24" value="&quot;invokes&quot;" style="edgeLabel;html=1;align=center;verticalAlign=middle;resizable=0;points=[];fontStyle=1;fontSize=14;" parent="dplGjKw8QEpCrHNLyvII-23" vertex="1" connectable="0">
          <mxGeometry x="-0.1985" y="-2" relative="1" as="geometry">
            <mxPoint y="1" as="offset" />
          </mxGeometry>
        </mxCell>
        <mxCell id="dplGjKw8QEpCrHNLyvII-25" value="&lt;i style=&quot;font-size: 14px;&quot;&gt;(from Состав требований)&lt;/i&gt;" style="text;html=1;strokeColor=none;fillColor=none;align=center;verticalAlign=middle;whiteSpace=wrap;rounded=0;fontStyle=1;fontSize=14;" parent="1" vertex="1">
          <mxGeometry x="627" y="570" width="200" height="30" as="geometry" />
        </mxCell>
        <mxCell id="dplGjKw8QEpCrHNLyvII-27" value="&lt;i style=&quot;font-size: 14px;&quot;&gt;(from Состав требований)&lt;/i&gt;" style="text;html=1;strokeColor=none;fillColor=none;align=center;verticalAlign=middle;whiteSpace=wrap;rounded=0;fontStyle=1;fontSize=14;" parent="1" vertex="1">
          <mxGeometry x="-30" y="130" width="200" height="30" as="geometry" />
        </mxCell>
        <mxCell id="dplGjKw8QEpCrHNLyvII-28" value="&lt;i style=&quot;font-size: 14px;&quot;&gt;(from Состав требований)&lt;/i&gt;" style="text;html=1;strokeColor=none;fillColor=none;align=center;verticalAlign=middle;whiteSpace=wrap;rounded=0;fontStyle=1;fontSize=14;" parent="1" vertex="1">
          <mxGeometry x="630" y="130" width="200" height="30" as="geometry" />
        </mxCell>
      </root>
    </mxGraphModel>
  </diagram>
</mxfile>
